<svg xmlns="http://www.w3.org/2000/svg" xmlns:xlink="http://www.w3.org/1999/xlink" width="512" zoomAndPan="magnify" viewBox="0 0 384 383.999986" height="512" preserveAspectRatio="xMidYMid meet" version="1.0"><defs><clipPath id="0e8eb6cc9b"><path d="M 14.496094 14.496094 L 369.246094 14.496094 L 369.246094 369.246094 L 14.496094 369.246094 Z M 14.496094 14.496094 " clip-rule="nonzero"/></clipPath></defs><g clip-path="url(#0e8eb6cc9b)"><path fill="#000000" d="M 340.640625 83.160156 L 332.011719 83.160156 C 322.066406 70.6875 272.777344 14.496094 191.871094 14.496094 C 110.96875 14.496094 61.679688 70.6875 51.734375 83.160156 L 43.105469 83.160156 C 27.332031 83.160156 14.496094 95.992188 14.496094 111.769531 L 14.496094 294.863281 C 14.496094 310.640625 27.332031 323.472656 43.105469 323.472656 L 123.210938 323.472656 L 123.210938 357.804688 L 88.882812 357.804688 L 88.882812 369.246094 L 294.863281 369.246094 L 294.863281 357.804688 L 260.535156 357.804688 L 260.535156 323.472656 L 340.640625 323.472656 C 356.414062 323.472656 369.246094 310.640625 369.246094 294.863281 L 369.246094 111.769531 C 369.246094 95.992188 356.414062 83.160156 340.640625 83.160156 Z M 191.871094 25.941406 C 263.996094 25.941406 310.503906 75.378906 321.867188 88.886719 C 310.53125 102.40625 264.15625 151.820312 191.871094 151.820312 C 119.75 151.820312 73.242188 102.382812 61.878906 88.875 C 73.214844 75.355469 119.589844 25.941406 191.871094 25.941406 Z M 266.988281 225.4375 C 274.550781 236.296875 279.578125 248.445312 281.910156 261.542969 L 282.746094 266.257812 L 306.308594 266.257812 L 306.308594 277.699219 L 254.8125 277.699219 C 254.8125 242.996094 226.574219 214.761719 191.871094 214.761719 C 157.171875 214.761719 128.933594 242.996094 128.933594 277.699219 L 77.4375 277.699219 L 77.4375 266.257812 L 101 266.257812 L 101.835938 261.542969 C 104.167969 248.449219 109.191406 236.300781 116.757812 225.4375 L 119.5 221.507812 L 102.859375 204.871094 L 119.046875 188.6875 L 135.679688 205.324219 L 139.609375 202.585938 C 150.46875 195.019531 162.617188 189.996094 175.714844 187.660156 L 180.429688 186.828125 L 180.429688 163.265625 L 203.316406 163.265625 L 203.316406 186.828125 L 208.03125 187.660156 C 221.121094 189.996094 233.269531 195.019531 244.136719 202.585938 L 248.066406 205.324219 L 264.699219 188.6875 L 280.886719 204.871094 L 264.246094 221.507812 Z M 243.367188 277.699219 L 140.378906 277.699219 C 140.378906 249.300781 163.476562 226.203125 191.871094 226.203125 C 220.269531 226.203125 243.367188 249.300781 243.367188 277.699219 Z M 25.941406 111.769531 C 25.941406 102.304688 33.644531 94.601562 43.105469 94.601562 L 51.734375 94.601562 C 60.703125 105.851562 101.679688 152.632812 168.984375 161.714844 L 168.984375 177.351562 C 157.609375 179.921875 146.917969 184.347656 137.082031 190.546875 L 119.050781 172.511719 L 86.683594 204.878906 L 104.71875 222.90625 C 98.523438 232.742188 94.097656 243.4375 91.523438 254.8125 L 65.992188 254.8125 L 65.992188 277.699219 L 25.941406 277.699219 Z M 249.089844 357.804688 L 134.65625 357.804688 L 134.65625 323.472656 L 249.089844 323.472656 Z M 357.804688 294.863281 C 357.804688 304.328125 350.101562 312.03125 340.640625 312.03125 L 43.105469 312.03125 C 33.644531 312.03125 25.941406 304.328125 25.941406 294.863281 L 25.941406 289.144531 L 357.804688 289.144531 Z M 357.804688 277.699219 L 317.753906 277.699219 L 317.753906 254.8125 L 292.222656 254.8125 C 289.652344 243.4375 285.222656 232.742188 279.027344 222.90625 L 297.0625 204.878906 L 264.695312 172.511719 L 246.664062 190.546875 C 236.828125 184.347656 226.136719 179.925781 214.761719 177.351562 L 214.761719 161.714844 C 282.066406 152.632812 323.042969 105.851562 332.011719 94.601562 L 340.640625 94.601562 C 350.101562 94.601562 357.804688 102.304688 357.804688 111.769531 Z M 357.804688 277.699219 " fill-opacity="1" fill-rule="nonzero"/></g><path fill="#000000" d="M 186.152344 254.8125 L 197.59375 254.8125 L 197.59375 266.257812 L 186.152344 266.257812 Z M 186.152344 254.8125 " fill-opacity="1" fill-rule="nonzero"/><path fill="#000000" d="M 209.039062 254.8125 L 220.480469 254.8125 L 220.480469 266.257812 L 209.039062 266.257812 Z M 209.039062 254.8125 " fill-opacity="1" fill-rule="nonzero"/><path fill="#000000" d="M 163.265625 254.8125 L 174.707031 254.8125 L 174.707031 266.257812 L 163.265625 266.257812 Z M 163.265625 254.8125 " fill-opacity="1" fill-rule="nonzero"/><path fill="#000000" d="M 191.871094 140.378906 C 220.269531 140.378906 243.367188 117.277344 243.367188 88.882812 C 243.367188 60.484375 220.269531 37.386719 191.871094 37.386719 C 163.476562 37.386719 140.378906 60.484375 140.378906 88.882812 C 140.378906 117.277344 163.476562 140.378906 191.871094 140.378906 Z M 191.871094 48.828125 C 213.953125 48.828125 231.925781 66.800781 231.925781 88.882812 C 231.925781 110.960938 213.953125 128.933594 191.871094 128.933594 C 169.792969 128.933594 151.820312 110.960938 151.820312 88.882812 C 151.820312 66.800781 169.792969 48.828125 191.871094 48.828125 Z M 191.871094 48.828125 " fill-opacity="1" fill-rule="nonzero"/><path fill="#000000" d="M 191.871094 111.769531 C 204.496094 111.769531 214.761719 101.503906 214.761719 88.882812 C 214.761719 76.257812 204.496094 65.992188 191.871094 65.992188 C 179.25 65.992188 168.984375 76.257812 168.984375 88.882812 C 168.984375 101.503906 179.25 111.769531 191.871094 111.769531 Z M 191.871094 77.4375 C 198.183594 77.4375 203.316406 82.570312 203.316406 88.882812 C 203.316406 95.191406 198.183594 100.324219 191.871094 100.324219 C 185.5625 100.324219 180.429688 95.191406 180.429688 88.882812 C 180.429688 82.570312 185.5625 77.4375 191.871094 77.4375 Z M 191.871094 77.4375 " fill-opacity="1" fill-rule="nonzero"/><path fill="#000000" d="M 260.535156 83.160156 L 271.976562 83.160156 L 271.976562 94.601562 L 260.535156 94.601562 Z M 260.535156 83.160156 " fill-opacity="1" fill-rule="nonzero"/><path fill="#000000" d="M 249.089844 54.550781 L 260.535156 54.550781 L 260.535156 65.992188 L 249.089844 65.992188 Z M 249.089844 54.550781 " fill-opacity="1" fill-rule="nonzero"/><path fill="#000000" d="M 249.089844 111.769531 L 260.535156 111.769531 L 260.535156 123.210938 L 249.089844 123.210938 Z M 249.089844 111.769531 " fill-opacity="1" fill-rule="nonzero"/><path fill="#000000" d="M 111.769531 83.160156 L 123.210938 83.160156 L 123.210938 94.601562 L 111.769531 94.601562 Z M 111.769531 83.160156 " fill-opacity="1" fill-rule="nonzero"/><path fill="#000000" d="M 123.210938 54.550781 L 134.65625 54.550781 L 134.65625 65.992188 L 123.210938 65.992188 Z M 123.210938 54.550781 " fill-opacity="1" fill-rule="nonzero"/><path fill="#000000" d="M 123.210938 111.769531 L 134.65625 111.769531 L 134.65625 123.210938 L 123.210938 123.210938 Z M 123.210938 111.769531 " fill-opacity="1" fill-rule="nonzero"/><path fill="#e6522c" d="M 93.769531 110.800781 C 89.832031 110.800781 86.640625 108.171875 86.640625 104.929688 L 100.894531 104.929688 C 100.894531 108.171875 97.703125 110.800781 93.769531 110.800781 Z M 93.769531 110.800781 " fill-opacity="1" fill-rule="nonzero"/><path fill="#e6522c" d="M 105.539062 102.984375 L 81.996094 102.984375 L 81.996094 98.714844 L 105.539062 98.714844 Z M 105.539062 102.984375 " fill-opacity="1" fill-rule="nonzero"/><path fill="#e6522c" d="M 105.457031 96.511719 L 82.0625 96.511719 C 81.984375 96.421875 81.90625 96.332031 81.832031 96.242188 C 80.234375 94.484375 79.058594 92.484375 78.300781 90.238281 C 78.289062 90.1875 81.222656 90.835938 83.300781 91.304688 C 83.300781 91.304688 84.371094 91.550781 85.933594 91.835938 C 85.175781 90.964844 84.59375 89.988281 84.179688 88.90625 C 83.769531 87.828125 83.558594 86.710938 83.542969 85.554688 C 83.542969 80.53125 87.390625 76.144531 86.003906 72.601562 C 87.355469 72.710938 88.800781 75.453125 88.898438 79.742188 C 90.296875 77.316406 90.976562 74.703125 90.941406 71.902344 C 90.941406 69.601562 92.457031 66.925781 93.976562 66.832031 C 92.621094 69.0625 94.328125 70.976562 95.84375 75.71875 C 96.410156 77.5 96.339844 80.5 96.777344 82.398438 C 96.921875 78.449219 97.601562 72.6875 100.105469 70.699219 C 99.007812 73.210938 100.261719 76.339844 101.136719 77.847656 C 102.695312 80.199219 103.445312 82.785156 103.386719 85.601562 C 103.382812 86.75 103.179688 87.859375 102.78125 88.9375 C 102.382812 90.011719 101.8125 90.984375 101.066406 91.859375 C 102.722656 91.542969 103.863281 91.265625 103.863281 91.265625 L 109.238281 90.21875 C 108.496094 92.628906 107.238281 94.726562 105.457031 96.511719 Z M 105.457031 96.511719 " fill-opacity="1" fill-rule="nonzero"/></svg>