<svg xmlns="http://www.w3.org/2000/svg" xmlns:xlink="http://www.w3.org/1999/xlink" width="512" zoomAndPan="magnify" viewBox="0 0 384 383.999986" height="512" preserveAspectRatio="xMidYMid meet" version="1.0"><defs><clipPath id="6ea5dd65ae"><path d="M 14.496094 14.496094 L 369.246094 14.496094 L 369.246094 369.246094 L 14.496094 369.246094 Z M 14.496094 14.496094 " clip-rule="nonzero"/></clipPath></defs><g clip-path="url(#6ea5dd65ae)"><path fill="#000000" d="M 340.640625 83.160156 L 332.011719 83.160156 C 322.066406 70.6875 272.777344 14.496094 191.871094 14.496094 C 110.96875 14.496094 61.679688 70.6875 51.734375 83.160156 L 43.105469 83.160156 C 27.332031 83.160156 14.496094 95.992188 14.496094 111.769531 L 14.496094 294.863281 C 14.496094 310.640625 27.332031 323.472656 43.105469 323.472656 L 123.210938 323.472656 L 123.210938 357.804688 L 88.882812 357.804688 L 88.882812 369.246094 L 294.863281 369.246094 L 294.863281 357.804688 L 260.535156 357.804688 L 260.535156 323.472656 L 340.640625 323.472656 C 356.414062 323.472656 369.246094 310.640625 369.246094 294.863281 L 369.246094 111.769531 C 369.246094 95.992188 356.414062 83.160156 340.640625 83.160156 Z M 191.871094 25.941406 C 263.996094 25.941406 310.503906 75.378906 321.867188 88.886719 C 310.53125 102.40625 264.15625 151.820312 191.871094 151.820312 C 119.75 151.820312 73.242188 102.382812 61.878906 88.875 C 73.214844 75.355469 119.589844 25.941406 191.871094 25.941406 Z M 266.988281 225.4375 C 274.550781 236.296875 279.578125 248.445312 281.910156 261.542969 L 282.746094 266.257812 L 306.308594 266.257812 L 306.308594 277.699219 L 254.8125 277.699219 C 254.8125 242.996094 226.574219 214.761719 191.871094 214.761719 C 157.171875 214.761719 128.933594 242.996094 128.933594 277.699219 L 77.4375 277.699219 L 77.4375 266.257812 L 101 266.257812 L 101.835938 261.542969 C 104.167969 248.449219 109.191406 236.300781 116.757812 225.4375 L 119.5 221.507812 L 102.859375 204.871094 L 119.046875 188.6875 L 135.679688 205.324219 L 139.609375 202.585938 C 150.46875 195.019531 162.617188 189.996094 175.714844 187.660156 L 180.429688 186.828125 L 180.429688 163.265625 L 203.316406 163.265625 L 203.316406 186.828125 L 208.03125 187.660156 C 221.121094 189.996094 233.269531 195.019531 244.136719 202.585938 L 248.066406 205.324219 L 264.699219 188.6875 L 280.886719 204.871094 L 264.246094 221.507812 Z M 243.367188 277.699219 L 140.378906 277.699219 C 140.378906 249.300781 163.476562 226.203125 191.871094 226.203125 C 220.269531 226.203125 243.367188 249.300781 243.367188 277.699219 Z M 25.941406 111.769531 C 25.941406 102.304688 33.644531 94.601562 43.105469 94.601562 L 51.734375 94.601562 C 60.703125 105.851562 101.679688 152.632812 168.984375 161.714844 L 168.984375 177.351562 C 157.609375 179.921875 146.917969 184.347656 137.082031 190.546875 L 119.050781 172.511719 L 86.683594 204.878906 L 104.71875 222.90625 C 98.523438 232.742188 94.097656 243.4375 91.523438 254.8125 L 65.992188 254.8125 L 65.992188 277.699219 L 25.941406 277.699219 Z M 249.089844 357.804688 L 134.65625 357.804688 L 134.65625 323.472656 L 249.089844 323.472656 Z M 357.804688 294.863281 C 357.804688 304.328125 350.101562 312.03125 340.640625 312.03125 L 43.105469 312.03125 C 33.644531 312.03125 25.941406 304.328125 25.941406 294.863281 L 25.941406 289.144531 L 357.804688 289.144531 Z M 357.804688 277.699219 L 317.753906 277.699219 L 317.753906 254.8125 L 292.222656 254.8125 C 289.652344 243.4375 285.222656 232.742188 279.027344 222.90625 L 297.0625 204.878906 L 264.695312 172.511719 L 246.664062 190.546875 C 236.828125 184.347656 226.136719 179.925781 214.761719 177.351562 L 214.761719 161.714844 C 282.066406 152.632812 323.042969 105.851562 332.011719 94.601562 L 340.640625 94.601562 C 350.101562 94.601562 357.804688 102.304688 357.804688 111.769531 Z M 357.804688 277.699219 " fill-opacity="1" fill-rule="nonzero"/></g><path fill="#000000" d="M 186.152344 254.8125 L 197.59375 254.8125 L 197.59375 266.257812 L 186.152344 266.257812 Z M 186.152344 254.8125 " fill-opacity="1" fill-rule="nonzero"/><path fill="#000000" d="M 209.039062 254.8125 L 220.480469 254.8125 L 220.480469 266.257812 L 209.039062 266.257812 Z M 209.039062 254.8125 " fill-opacity="1" fill-rule="nonzero"/><path fill="#000000" d="M 163.265625 254.8125 L 174.707031 254.8125 L 174.707031 266.257812 L 163.265625 266.257812 Z M 163.265625 254.8125 " fill-opacity="1" fill-rule="nonzero"/><path fill="#000000" d="M 191.871094 140.378906 C 220.269531 140.378906 243.367188 117.277344 243.367188 88.882812 C 243.367188 60.484375 220.269531 37.386719 191.871094 37.386719 C 163.476562 37.386719 140.378906 60.484375 140.378906 88.882812 C 140.378906 117.277344 163.476562 140.378906 191.871094 140.378906 Z M 191.871094 48.828125 C 213.953125 48.828125 231.925781 66.800781 231.925781 88.882812 C 231.925781 110.960938 213.953125 128.933594 191.871094 128.933594 C 169.792969 128.933594 151.820312 110.960938 151.820312 88.882812 C 151.820312 66.800781 169.792969 48.828125 191.871094 48.828125 Z M 191.871094 48.828125 " fill-opacity="1" fill-rule="nonzero"/><path fill="#000000" d="M 191.871094 111.769531 C 204.496094 111.769531 214.761719 101.503906 214.761719 88.882812 C 214.761719 76.257812 204.496094 65.992188 191.871094 65.992188 C 179.25 65.992188 168.984375 76.257812 168.984375 88.882812 C 168.984375 101.503906 179.25 111.769531 191.871094 111.769531 Z M 191.871094 77.4375 C 198.183594 77.4375 203.316406 82.570312 203.316406 88.882812 C 203.316406 95.191406 198.183594 100.324219 191.871094 100.324219 C 185.5625 100.324219 180.429688 95.191406 180.429688 88.882812 C 180.429688 82.570312 185.5625 77.4375 191.871094 77.4375 Z M 191.871094 77.4375 " fill-opacity="1" fill-rule="nonzero"/><path fill="#000000" d="M 260.535156 83.160156 L 271.976562 83.160156 L 271.976562 94.601562 L 260.535156 94.601562 Z M 260.535156 83.160156 " fill-opacity="1" fill-rule="nonzero"/><path fill="#000000" d="M 249.089844 54.550781 L 260.535156 54.550781 L 260.535156 65.992188 L 249.089844 65.992188 Z M 249.089844 54.550781 " fill-opacity="1" fill-rule="nonzero"/><path fill="#000000" d="M 249.089844 111.769531 L 260.535156 111.769531 L 260.535156 123.210938 L 249.089844 123.210938 Z M 249.089844 111.769531 " fill-opacity="1" fill-rule="nonzero"/><path fill="#000000" d="M 111.769531 83.160156 L 123.210938 83.160156 L 123.210938 94.601562 L 111.769531 94.601562 Z M 111.769531 83.160156 " fill-opacity="1" fill-rule="nonzero"/><path fill="#000000" d="M 123.210938 54.550781 L 134.65625 54.550781 L 134.65625 65.992188 L 123.210938 65.992188 Z M 123.210938 54.550781 " fill-opacity="1" fill-rule="nonzero"/><path fill="#000000" d="M 123.210938 111.769531 L 134.65625 111.769531 L 134.65625 123.210938 L 123.210938 123.210938 Z M 123.210938 111.769531 " fill-opacity="1" fill-rule="nonzero"/><path fill="#e6522c" d="M 59.910156 225.871094 C 51.570312 225.871094 44.804688 220.300781 44.804688 213.429688 L 75.015625 213.429688 C 75.019531 220.296875 68.253906 225.871094 59.910156 225.871094 Z M 59.910156 225.871094 " fill-opacity="1" fill-rule="nonzero"/><path fill="#e6522c" d="M 84.859375 209.308594 L 34.960938 209.308594 L 34.960938 200.257812 L 84.863281 200.257812 L 84.863281 209.308594 Z M 84.859375 209.308594 " fill-opacity="1" fill-rule="nonzero"/><path fill="#e6522c" d="M 84.683594 195.585938 L 35.101562 195.585938 C 34.9375 195.398438 34.769531 195.210938 34.609375 195.019531 C 31.234375 191.296875 28.738281 187.054688 27.128906 182.289062 C 27.109375 182.179688 33.324219 183.558594 37.730469 184.550781 C 37.730469 184.550781 39.996094 185.078125 43.308594 185.679688 C 41.703125 183.828125 40.464844 181.761719 39.59375 179.472656 C 38.722656 177.183594 38.269531 174.816406 38.238281 172.367188 C 38.238281 161.714844 46.398438 152.425781 43.457031 144.910156 C 46.324219 145.140625 49.386719 150.957031 49.59375 160.050781 C 51.046875 157.523438 52.140625 154.851562 52.875 152.03125 C 53.609375 149.214844 53.957031 146.347656 53.921875 143.433594 C 53.921875 138.550781 57.136719 132.886719 60.355469 132.6875 C 57.484375 137.414062 61.097656 141.46875 64.308594 151.519531 C 65.511719 155.292969 65.359375 161.648438 66.289062 165.675781 C 66.597656 157.308594 68.035156 145.097656 73.34375 140.882812 C 71.015625 146.207031 73.675781 152.832031 75.53125 156.027344 C 77.140625 158.460938 78.355469 161.082031 79.167969 163.886719 C 79.980469 166.691406 80.355469 169.550781 80.296875 172.46875 C 80.289062 174.898438 79.859375 177.253906 79.015625 179.535156 C 78.171875 181.8125 76.960938 183.875 75.382812 185.726562 C 78.886719 185.058594 81.3125 184.472656 81.3125 184.472656 L 92.695312 182.253906 C 91.128906 187.363281 88.457031 191.804688 84.683594 195.585938 Z M 84.683594 195.585938 " fill-opacity="1" fill-rule="nonzero"/></svg>