<svg id="Icons" xmlns="http://www.w3.org/2000/svg" viewBox="0 0 60 60"><title>037 - API Gateway</title><path d="M49.93,22.71c.05-.56.07-1.14.07-1.71s-.02-1.15-.07-1.71a1.173,1.173,0,0,0-.74-.96l-2.61-1.05a16.966,16.966,0,0,0-2.23-5.37l1.11-2.59a1.158,1.158,0,0,0-.16-1.2,15.318,15.318,0,0,0-1.16-1.26A15.318,15.318,0,0,0,42.88,5.7a1.158,1.158,0,0,0-1.2-.16L39.09,6.65a16.966,16.966,0,0,0-5.37-2.23L32.67,1.81a1.173,1.173,0,0,0-.96-.74C31.15,1.02,30.57,1,30,1s-1.15.02-1.71.07a1.173,1.173,0,0,0-.96.74L26.28,4.42a16.966,16.966,0,0,0-5.37,2.23L18.32,5.54a1.158,1.158,0,0,0-1.2.16,15.318,15.318,0,0,0-1.26,1.16A15.318,15.318,0,0,0,14.7,8.12a1.158,1.158,0,0,0-.16,1.2l1.11,2.59a16.966,16.966,0,0,0-2.23,5.37l-2.61,1.05a1.173,1.173,0,0,0-.74.96c-.05.56-.07,1.14-.07,1.71s.02,1.15.07,1.71a1.173,1.173,0,0,0,.74.96l2.61,1.05a16.966,16.966,0,0,0,2.23,5.37l-1.11,2.59a1.158,1.158,0,0,0,.16,1.2c.01.01.02.02.02.03a19.659,19.659,0,0,0,1.83-.8,17.544,17.544,0,0,0,3.8-2.66c.13-.11.26-.22.39-.34a13,13,0,1,1,18.52,0c.13.12.26.23.39.34a17.544,17.544,0,0,0,3.8,2.66,19.659,19.659,0,0,0,1.83.8c0-.01.01-.02.02-.03a1.158,1.158,0,0,0,.16-1.2l-1.11-2.59a16.966,16.966,0,0,0,2.23-5.37l2.61-1.05A1.173,1.173,0,0,0,49.93,22.71Z"/><path d="M3,58H57a1,1,0,1,0,0-2H3a1,1,0,0,0,0,2Z"/><rect x="5" y="34" width="4" height="20"/><rect x="51" y="34" width="4" height="20"/><path d="M49,36.924A20.036,20.036,0,0,1,42.553,34.9a19.408,19.408,0,0,1-4.2-2.925A9.994,9.994,0,0,0,31,29.022V54H49ZM35,51a1,1,0,0,1-2,0V33a1,1,0,0,1,2,0Zm4,0a1,1,0,0,1-2,0V36a1,1,0,0,1,2,0Zm4,0a1,1,0,0,1-2,0V38a1,1,0,0,1,2,0Zm4,0a1,1,0,0,1-2,0V39a1,1,0,0,1,2,0Z"/><path d="M11,36.924V54H29V29.022a9.994,9.994,0,0,0-7.351,2.948,19.408,19.408,0,0,1-4.2,2.925A20.036,20.036,0,0,1,11,36.924ZM15,51a1,1,0,0,1-2,0V39a1,1,0,0,1,2,0ZM25,33a1,1,0,0,1,2,0V51a1,1,0,0,1-2,0Zm-4,3a1,1,0,0,1,2,0V51a1,1,0,0,1-2,0Zm-2,2V51a1,1,0,0,1-2,0V38a1,1,0,0,1,2,0Z"/><circle cx="7" cy="30" r="2"/><circle cx="53" cy="30" r="2"/><path d="M26,25a1,1,0,0,0,1-1V20a3,3,0,0,0-6,0v4a1,1,0,0,0,2,0V23h2v1A1,1,0,0,0,26,25Zm-3-4V20a1,1,0,0,1,2,0v1Z"/><path d="M31,23h1a3,3,0,0,0,0-6H30a1,1,0,0,0-1,1v6a1,1,0,0,0,2,0Zm0-4h1a1,1,0,0,1,0,2H31Z"/><path d="M39,24V18a1,1,0,0,0-2,0v6a1,1,0,0,0,2,0Z"/></svg>